<?xml version="1.0" encoding="UTF-8"?>
<svg version="1.1" viewBox="0 0 2048 2048" width="512" height="512" xmlns="http://www.w3.org/2000/svg">
<path transform="translate(319,255)" d="m0 0h1405l22 1 23 3 21 6 19 8 16 8 12 8 12 9 11 9v2l4 2 2 4h2l7 8 10 13 9 14 10 19 8 21 6 25 2 17 1 22v1114l-1 47-2 17-4 19-7 20-7 16-11 19-12 16-11 12-12 12-17 13-15 9-23 11-21 7-27 5-12 1h-1431l-26-3-22-6-16-6-16-8-14-8-17-13-13-12-8-8-9-11-10-14-10-18-8-18-6-20-4-20-2-23v-1162l2-22 4-20 5-16 6-15 8-16 10-16 13-16 12-13 10-9 15-11 18-11 17-8 21-7 23-5zm1 129-17 2-13 5-11 8-10 10-8 14-4 16-1 39v849l1 77 3-1 12-17 10-13 153-204 9-11 14-15 13-11 16-11 16-9 18-8 18-6 26-5 10-1h30l22 3 23 6 16 6 16 8 14 8 16 12 10 9 8 7 192 192 4-2 13-16 21-27 11-14 13-16 13-17 22-28 13-16 15-20 13-16 11-14 12-15 12-16 13-16 11-14 14-18 11-14 8-10 11-14 14-18 11-14 8-10 11-14 14-18 11-14 8-10 11-14 14-18 12-14 9-10 11-9 13-10 16-10 23-11 26-8 23-4 13-1h16l21 2 20 4 16 5 21 9 15 8 16 11 11 9 17 16 226 226h1v-684l-4-15-7-13-9-10-10-8-11-5-11-3-9-1zm1097 577-15 2-12 5-9 6-10 9-13 16-8 11-13 16-13 17-9 11-10 13-11 14-12 15-13 17-13 16-10 13-11 14-14 18-12 15-22 28-10 13-13 16-10 13-11 14-10 13-12 15-22 28-10 13-12 15-22 28-10 13-11 14-13 16-12 16-13 16-10 13-12 15-13 17-13 16-10 13-33 42-12 15-22 28-10 13-13 16-11 14v1h899l16-4 11-6 11-9 8-10 6-13 3-13v-302l-11-12-162-162h-2l-2-4h-2l-2-4h-2l-2-4h-2l-2-4h-2l-2-4h-2l-2-4h-2l-2-4h-2l-2-4h-2l-2-4h-2l-2-4h-2l-2-4-108-108-10-8-16-8-8-2zm-839 259-13 4-10 5-10 8-11 14-16 21-14 19-16 21-14 19-16 21-14 19-16 21-14 19-16 21-14 19-16 21-14 19-16 21-14 19-16 21-14 19-16 21-12 16-5 7-1 4 8 16 7 9 9 8 11 6 13 4 5 1h360l11-13 9-12 8-10 10-13 13-16 13-17 12-15 7-9 11-14 14-18 12-15 13-17 13-16 12-16 12-15-1-3-7-6-1-2h-2v-2h-2v-2h-2l-2-4-188-188-8-7-13-8-11-4-6-1z" fill="#FDFDFD"/>
<path transform="translate(759,511)" d="m0 0h17l21 2 23 5 15 5 16 7 17 9 16 11 13 11 7 6 7 8 9 10 11 16 9 16 8 18 7 21 4 20 1 10v37l-3 19-6 23-8 20-11 21-7 10-11 14-7 7-2 3h-2l-2 4-8 7-13 10-18 11-16 8-15 6-17 5-21 4-10 1h-32l-21-3-19-5-22-8-21-11-17-12-13-11-16-16-11-14-12-19-8-16-7-18-6-24-3-23v-23l3-24 4-17 6-18 10-22 8-13 10-14 12-14 12-12 17-13 19-12 21-10 22-7 19-4zm-2 130-14 4-9 5-9 7-7 7-6 9-5 13-2 9v18l4 15 7 13 11 12 13 8 10 4 10 2h16l15-4 12-6 13-11 7-10 5-11 3-12v-18l-4-15-7-13-9-10-9-7-12-6-12-3z" fill="#FEFEFE"/>
</svg>
